<?xml version="1.0" encoding="utf-8"?>
<!-- Generator: Adobe Illustrator 19.2.0, SVG Export Plug-In . SVG Version: 6.00 Build 0)  -->
<svg version="1.1" id="Layer_1" xmlns="http://www.w3.org/2000/svg" xmlns:xlink="http://www.w3.org/1999/xlink" x="0px" y="0px"
	 viewBox="0 0 512 512" style="enable-background:new 0 0 512 512;" xml:space="preserve">
<g>
	<path d="M256,46.1c68.4,0,76.5,0.3,103.4,1.5c25,1.1,38.5,5.3,47.5,8.8c11.9,4.6,20.5,10.2,29.4,19.1c9,9,14.5,17.5,19.2,29.4
		c3.5,9,7.7,22.6,8.8,47.5c1.2,27,1.5,35.1,1.5,103.4s-0.3,76.5-1.5,103.4c-1.1,25-5.3,38.5-8.8,47.5c-4.6,11.9-10.2,20.5-19.1,29.4
		c-9,9-17.5,14.5-29.4,19.2c-9,3.5-22.6,7.7-47.5,8.8c-27,1.2-35.1,1.5-103.4,1.5s-76.5-0.3-103.4-1.5c-25-1.1-38.5-5.3-47.5-8.8
		c-11.9-4.6-20.5-10.2-29.4-19.1c-9-9-14.5-17.5-19.2-29.4c-3.5-9-7.7-22.6-8.8-47.5c-1.2-27-1.5-35.1-1.5-103.4s0.3-76.5,1.5-103.4
		c1.1-25,5.3-38.5,8.8-47.5c4.6-11.9,10.2-20.5,19.1-29.4c9-9,17.5-14.5,29.4-19.2c9-3.5,22.6-7.7,47.5-8.8
		C179.5,46.4,187.6,46.1,256,46.1 M256,0c-69.5,0-78.2,0.3-105.5,1.5c-27.2,1.2-45.9,5.6-62.1,11.9C71.5,20,57.2,28.7,43,43
		C28.7,57.2,20,71.5,13.4,88.3c-6.3,16.3-10.7,34.9-11.9,62.1C0.3,177.8,0,186.5,0,256c0,69.5,0.3,78.2,1.5,105.5
		c1.2,27.2,5.6,45.9,11.9,62.1C20,440.5,28.7,454.8,43,469c14.2,14.2,28.5,23,45.3,29.5c16.3,6.3,34.9,10.7,62.1,11.9
		c27.3,1.2,36,1.5,105.5,1.5s78.2-0.3,105.5-1.5c27.2-1.2,45.9-5.6,62.1-11.9c16.8-6.5,31.1-15.3,45.3-29.5
		c14.2-14.2,23-28.5,29.5-45.3c6.3-16.3,10.7-34.9,11.9-62.1c1.2-27.3,1.5-36,1.5-105.5s-0.3-78.2-1.5-105.5
		c-1.2-27.2-5.6-45.9-11.9-62.1C492,71.5,483.3,57.2,469,43c-14.2-14.2-28.5-23-45.3-29.5c-16.3-6.3-34.9-10.7-62.1-11.9
		C334.2,0.3,325.5,0,256,0L256,0z"/>
	<path d="M256,124.5c-72.6,0-131.5,58.9-131.5,131.5S183.4,387.5,256,387.5S387.5,328.6,387.5,256S328.6,124.5,256,124.5z
		 M256,341.3c-47.1,0-85.3-38.2-85.3-85.3s38.2-85.3,85.3-85.3s85.3,38.2,85.3,85.3S303.1,341.3,256,341.3z"/>
	<circle cx="392.7" cy="119.3" r="30.7"/>
</g>
</svg>
