<?xml version="1.0" encoding="utf-8"?>
<!-- Generator: Adobe Illustrator 16.0.0, SVG Export Plug-In . SVG Version: 6.00 Build 0)  -->
<!DOCTYPE svg PUBLIC "-//W3C//DTD SVG 1.1//EN" "http://www.w3.org/Graphics/SVG/1.1/DTD/svg11.dtd">
<svg version="1.1" id="Layer_1" xmlns="http://www.w3.org/2000/svg" xmlns:xlink="http://www.w3.org/1999/xlink" x="0px" y="0px"
	 width="512px" height="635px" viewBox="0 0 512 635" enable-background="new 0 0 512 635" xml:space="preserve">
<g id="Grid" display="none">
	<g display="inline">
		<line fill="none" stroke="#B35047" x1="32" y1="0" x2="32" y2="512"/>
		<line fill="none" stroke="#B35047" x1="64" y1="0" x2="64" y2="512"/>
		<line fill="none" stroke="#B35047" x1="96" y1="0" x2="96" y2="512"/>
		<line fill="none" stroke="#B35047" x1="128" y1="0" x2="128" y2="512"/>
		<line fill="none" stroke="#B35047" x1="160" y1="0" x2="160" y2="512"/>
		<line fill="none" stroke="#B35047" x1="192" y1="0" x2="192" y2="512"/>
		<line fill="none" stroke="#B35047" x1="224" y1="0" x2="224" y2="512"/>
		<line fill="none" stroke="#B35047" x1="256" y1="0" x2="256" y2="512"/>
		<line fill="none" stroke="#B35047" x1="288" y1="0" x2="288" y2="512"/>
		<line fill="none" stroke="#B35047" x1="320" y1="0" x2="320" y2="512"/>
		<line fill="none" stroke="#B35047" x1="352" y1="0" x2="352" y2="512"/>
		<line fill="none" stroke="#B35047" x1="384" y1="0" x2="384" y2="512"/>
		<line fill="none" stroke="#B35047" x1="416" y1="0" x2="416" y2="512"/>
		<line fill="none" stroke="#B35047" x1="448" y1="0" x2="448" y2="512"/>
		<line fill="none" stroke="#B35047" x1="480" y1="0" x2="480" y2="512"/>
		<line fill="none" stroke="#B35047" x1="0" y1="32" x2="512" y2="32"/>
		<line fill="none" stroke="#B35047" x1="0" y1="64" x2="512" y2="64"/>
		<line fill="none" stroke="#B35047" x1="0" y1="96" x2="512" y2="96"/>
		<line fill="none" stroke="#B35047" x1="0" y1="128" x2="512" y2="128"/>
		<line fill="none" stroke="#B35047" x1="0" y1="160" x2="512" y2="160"/>
		<line fill="none" stroke="#B35047" x1="0" y1="192" x2="512" y2="192"/>
		<line fill="none" stroke="#B35047" x1="0" y1="224" x2="512" y2="224"/>
		<line fill="none" stroke="#B35047" x1="0" y1="256" x2="512" y2="256"/>
		<line fill="none" stroke="#B35047" x1="0" y1="288" x2="512" y2="288"/>
		<line fill="none" stroke="#B35047" x1="0" y1="320" x2="512" y2="320"/>
		<line fill="none" stroke="#B35047" x1="0" y1="352" x2="512" y2="352"/>
		<line fill="none" stroke="#B35047" x1="0" y1="384" x2="512" y2="384"/>
		<line fill="none" stroke="#B35047" x1="0" y1="416" x2="512" y2="416"/>
		<line fill="none" stroke="#B35047" x1="0" y1="448" x2="512" y2="448"/>
		<line fill="none" stroke="#B35047" x1="0" y1="480" x2="512" y2="480"/>
		<rect x="0" y="0" fill="none" stroke="#B35047" width="512" height="512"/>
	</g>
</g>
<path fill="#1D1D1B" d="M509.85,136.548c-0.687-1.12-11.771-20.49-34.07-40.359c-22.172-19.807-56.489-40.422-101.77-40.422
	c-45.25,0-79.225,20.709-100.962,40.578c-6.696,6.135-12.363,12.238-17.003,17.72c-4.796-5.543-10.65-11.678-17.564-17.875
	c-22.173-19.807-56.553-40.422-101.771-40.422c-45.249,0-79.255,20.709-100.961,40.578C13.888,116.307,3.237,135.739,2.615,136.86
	l-2.305,8.969v292.234l35.003,8.906l0.062,0.062c0.498-0.936,9.902-17.16,27.154-32.326c17.439-15.291,41.73-29.336,74.181-29.336
	c33.508,0,58.981,15.043,76.92,30.955c8.906,7.91,15.695,15.914,20.18,21.861c2.242,2.928,3.862,5.357,4.92,6.977
	c0.437,0.718,0.778,1.216,1.028,1.588c3.083,5.979,9.311,10.06,16.536,10.06c7.349,0,13.703-4.234,16.754-10.4
	c1.806-3.114,11.023-17.813,26.845-31.703c17.377-15.291,41.666-29.336,74.117-29.336c33.508,0,58.979,15.043,76.92,30.955
	c8.906,7.91,15.695,15.914,20.18,21.861c2.242,2.928,3.924,5.356,4.951,6.977c0.529,0.812,0.902,1.433,1.152,1.808
	c0.094,0.186,0.186,0.311,0.186,0.373l0.062-0.031l34.848-9.248V145.829L509.85,136.548z M237.608,387.675
	C215.436,368.117,181.429,348,136.709,348h-0.062c-43.91,0-77.23,19.494-98.968,38.804V151.06
	c3.799-5.792,12.208-17.471,24.851-28.588c17.439-15.26,41.73-29.305,74.181-29.335c33.508,0,58.981,15.072,76.92,30.954
	c8.906,7.91,15.695,15.945,20.18,21.862c1.558,2.055,2.803,3.861,3.799,5.356L237.608,387.675L237.608,387.675z M474.907,387.675
	C452.766,368.117,418.729,348,374.01,348c-43.941-0.03-77.232,19.494-99.031,38.804V151.06c3.799-5.792,12.207-17.439,24.914-28.588
	c17.377-15.26,41.666-29.305,74.117-29.335c33.508,0,58.979,15.072,76.92,30.954c8.906,7.91,15.695,15.945,20.18,21.862
	c1.557,2.055,2.863,3.861,3.799,5.325L474.907,387.675L474.907,387.675z M60.039,168.998l15.321,20.118l1.993,2.803
	c0.965-0.623,21.176-14.886,61.973-14.917c21.768,0,37.931,4.08,48.55,8.003c5.325,1.932,9.187,3.862,11.646,5.232
	c1.246,0.685,2.087,1.215,2.616,1.557c0.249,0.125,0.405,0.249,0.467,0.28l0.031,0.031h0.031l4.608-6.509l12.208-16.785
	c-1.682-1.277-29.272-20.585-80.158-20.555C88.409,148.195,61.783,167.596,60.039,168.998 M77.354,254.077
	c0.965-0.623,21.176-14.917,61.973-14.948c21.768,0,37.962,4.111,48.58,8.035c5.264,1.932,9.156,3.861,11.616,5.231
	c1.246,0.685,2.118,1.184,2.616,1.525c0.249,0.156,0.405,0.28,0.467,0.344h0.062l4.483-6.385l12.302-16.909l0,0
	c-1.683-1.277-29.242-20.584-80.127-20.555c-50.917-0.03-77.542,19.309-79.287,20.741l17.438,22.858l-2.118-2.772L77.354,254.077z
	 M60.039,293.314l15.882,20.865l-0.562-0.746l1.993,2.803l0.125-0.062c1.744-1.185,21.924-14.824,61.848-14.855
	c21.768,0,37.962,4.08,48.55,8.004c5.294,1.931,9.187,3.861,11.646,5.232c1.246,0.684,2.118,1.182,2.616,1.524
	c0.249,0.156,0.405,0.279,0.467,0.312c0,0,0.031,0,0.031,0.031h0.031l4.671-6.603l12.145-16.691
	c-1.713-1.309-29.272-20.585-80.158-20.555C88.377,272.544,61.814,291.883,60.039,293.314 M441.586,192.105l4.733-6.728
	l-4.858,6.664l0,0C441.523,192.105,441.586,192.105,441.586,192.105 M314.279,189.115l1.992,2.803l0,0
	c0.967-0.623,21.179-14.886,61.941-14.917c21.768,0,37.961,4.08,48.551,8.003c5.293,1.932,9.186,3.862,11.646,5.232
	c1.246,0.685,2.117,1.215,2.615,1.557c0.188,0.094,0.373,0.188,0.437,0.249l16.909-23.23c-1.713-1.277-29.241-20.585-80.157-20.555
	c-50.916-0.062-77.512,19.34-79.287,20.74l17.408,22.858L314.279,189.115z M316.271,254.077
	c0.967-0.623,21.146-14.917,61.941-14.948c21.768,0,37.961,4.111,48.551,8.035c5.293,1.932,9.217,3.861,11.646,5.231
	c1.246,0.685,2.117,1.184,2.615,1.525c0.219,0.156,0.373,0.219,0.437,0.28c0.062,0.062,0.125,0.062,0.125,0.062l4.547-6.479
	l12.237-16.815l0,0c-1.713-1.277-29.241-20.584-80.157-20.555c-50.916-0.031-77.512,19.309-79.287,20.741l17.408,22.858
	l-2.056-2.741L316.271,254.077z M298.926,293.314l15.354,20.18l1.992,2.742l0.062-0.062c1.744-1.185,21.985-14.824,61.879-14.855
	c21.768,0,37.961,4.08,48.551,8.004c5.293,1.931,9.186,3.861,11.646,5.232c1.246,0.684,2.117,1.182,2.615,1.524
	c0.25,0.156,0.437,0.279,0.498,0.312c0,0,0,0,0,0.031h0.062l4.608-6.603l12.176-16.691c-1.713-1.309-29.241-20.585-80.157-20.555
	C327.297,272.544,300.701,291.883,298.926,293.314"/>
</svg>
